<svg xmlns="http://www.w3.org/2000/svg" version="1.1" xmlns:xlink="http://www.w3.org/1999/xlink" xmlns:svgjs="http://svgjs.com/svgjs" width="1000" height="1000"><style>
    #light-icon {
      display: inline;
    }
    #dark-icon {
      display: none;
    }

    @media (prefers-color-scheme: dark) {
      #light-icon {
        display: none;
      }
      #dark-icon {
        display: inline;
      }
    }
  </style><g id="light-icon"><svg xmlns="http://www.w3.org/2000/svg" version="1.1" xmlns:xlink="http://www.w3.org/1999/xlink" xmlns:svgjs="http://svgjs.com/svgjs" width="1000" height="1000"><rect width="1000" height="1000" rx="200" ry="200" fill="#555555"></rect><g transform="matrix(1,0,0,1,100,100)"><svg xmlns="http://www.w3.org/2000/svg" version="1.1" xmlns:xlink="http://www.w3.org/1999/xlink" xmlns:svgjs="http://svgjs.com/svgjs" width="800" height="800"><svg version="1.1" id="Layer_1" xmlns="http://www.w3.org/2000/svg" xmlns:xlink="http://www.w3.org/1999/xlink" x="0px" y="0px" viewBox="0 0 800 800" style="enable-background:new 0 0 800 800;" xml:space="preserve">
<style type="text/css">
	.st0{fill:#FFFFFF;}
</style>
<path class="st0" d="M371.55,172.96c-0.64-1.09-1.22-2.06-1.8-3.04c-16.28-27.52-32.61-55.03-46.38-83.91
	c-3.73-7.81-6.78-16.1-8.9-24.48c-2.13-8.38,0.63-16.29,6.4-22.77c4.15-4.67,9.54-5.65,15.47-3.82
	c8.82,2.73,15.94,11.67,15.46,21.46c-0.37,7.66,2.46,13.1,7.19,18.69c22.4,26.44,40.32,55.78,55.26,86.99
	c0.45,0.94,0.94,1.86,1.32,2.59c6.64-1.49,13-3.35,19.49-4.3c14.37-2.09,28.82-3.65,43.22-5.58c7.55-1.01,12.52,2.47,16,8.68
	c4.78,8.53,5.56,17.54,2.54,26.8c-0.66,2.02-1.9,4.03-3.38,5.57c-3.47,3.61-8.95,3.61-12.2-0.18c-1.95-2.27-3.3-5.16-4.47-7.96
	c-0.67-1.58-1.43-2.31-3.02-2.25c-4.6,0.18-9.03,0.21-13.59,2.15c-5.51,2.35-11.67,3.18-17.57,4.56c-4.36,1.02-8.76,1.87-13.58,2.89
	c0.37,1.44,0.56,2.81,1.07,4.05c12.49,30.75,25.01,61.48,37.54,92.21c0.1,0.24,0.26,0.45,0.45,0.78c3.86-0.57,7.75-1.28,11.66-1.69
	c12.57-1.33,24.43,0.7,35.04,7.98c1.73,1.19,3.42,2.54,4.79,4.11c2.87,3.28,2.28,7.06-1.79,8.56c-3.98,1.48-8.3,2.31-12.54,2.74
	c-7.96,0.81-15.97,1.1-23.96,1.66c-1.11,0.08-2.2,0.43-3.53,0.7c3.28,8.05,6.45,15.87,9.66,23.67
	c22.93,55.86,45.51,111.87,68.9,167.54c24.84,59.08,53.25,116.42,86.57,171.25c17.58,28.93,37.55,56.08,59.86,81.52
	c1.49,1.7,2.88,3.49,4.82,5.86c-2.02-0.48-3.39-0.53-4.5-1.1c-15.67-8.08-30.86-16.92-44.73-27.9
	c-22.84-18.09-43.24-38.63-61.73-61.1c-31.9-38.78-57.74-81.45-80.49-126.07c-21.51-42.18-39.49-85.88-55.59-130.37
	c-2.37-6.53-4.64-13.1-6.96-19.65c-0.32-0.9-0.69-1.77-1.22-3.11c-11.68,29.81-30.64,53.89-54.13,75.1c3.66,1.61,6.97,2.97,10.2,4.5
	c15.58,7.4,31.2,14.75,46.67,22.37c3.33,1.64,6.46,4.04,9.1,6.67c5.2,5.18,5.3,11.93,0.68,17.66c-4.02,4.98-9.29,8.42-14.95,11.12
	c-12.08,5.76-24.26,11.29-36.44,16.84c-36.64,16.69-72.87,34.19-107.38,55.04c-6.79,4.1-13.47,8.36-20.21,12.54
	c-12.23,7.58-25.38,12.44-39.77,13.93c-17.05,1.77-31.14-3.91-42.73-16.31c-12.67-13.55-20.01-29.34-18.31-48.13
	c0.87-9.59,3.31-19.07,5.42-28.51c8.77-39.33,26.07-75.04,46.91-109.19c5.18-8.5,10.6-16.85,15.92-25.27
	c0.51-0.81,1.01-1.62,1.71-2.73c-0.71,0.06-1.13-0.01-1.46,0.13c-23.45,10.08-47.29,19.35-69.72,31.64
	c-9.95,5.45-19.5,11.66-29.08,17.75c-11.54,7.34-23.18,14.43-36.17,19c-11.53,4.05-22.56,3.92-33.09-3.12
	c-7.25-4.84-7.43-9.42,0.41-13.3c7-3.46,14.42-6.06,21.72-8.9c28.06-10.94,51.97-27.82,73.04-49.27
	c44.1-44.92,88.49-89.57,132.94-134.14c22.62-22.68,46.58-43.89,72.15-63.23c0.42-0.31,0.79-0.68,1.16-1.01
	c-2.14-4.51-2.13-4.45-5.89-3.76c-20.95,3.84-41.1,10.47-60.98,17.92c-17.07,6.39-33.92,13.36-51.08,19.48
	c-7.4,2.64-15.25,4.63-23.04,5.41c-12.63,1.26-24.03-3.08-33.79-11.07c-4.82-3.95-9.15-8.53-13.43-13.07
	c-1.24-1.32-1.57-3.51-2.32-5.29c1.9-0.36,3.88-1.27,5.67-0.98c6.25,1.01,12.42,2.47,18.64,3.7c13.23,2.61,26.19,0.96,38.87-2.97
	c19.75-6.13,39.35-12.75,59.12-18.82c16.82-5.16,33.8-9.84,50.7-14.73C370.04,173.48,370.69,173.24,371.55,172.96z M431.64,329.4
	c-1.24,0.44-2.25,0.72-3.2,1.13c-13.69,5.91-46.76,18.4-48.39,19.06c-7.09,2.9-14.06,6.07-21.13,9.01
	c-17.96,7.5-35.79,15.28-52.73,24.92c-19.03,10.83-35.22,24.73-45.91,44.14c-7.47,13.57-14.73,27.28-21.44,41.23
	c-12.38,25.76-20.36,53.03-26.49,80.87c-1.76,7.98-3.8,15.94-2.7,24.29c2.2,16.67,15.6,34.33,38.99,32.56
	c8.46-0.64,16.02-3.87,23.29-7.97c33.36-18.83,66.69-37.73,101.55-53.7c14.4-6.6,29.03-12.71,43.36-19.47
	c5.52-2.61,10.79-6,15.64-9.72c5.1-3.91,5.13-9.19,0.42-13.6c-2.6-2.43-5.7-4.47-8.86-6.12c-10.46-5.46-21.07-10.62-31.56-16.01
	c-1.78-0.92-2.86-0.69-4.36,0.56c-17.22,14.29-35.87,26.44-55.78,36.63c-6.88,3.52-14.07,6.11-21.9,6.33
	c-8.2,0.24-16.07-1.29-21.86-7.46c-9.46-10.1-14.86-27.29-2.46-41.98c5.86-6.93,13.27-11.75,21-16.24
	c13.05-7.58,26.82-9.53,41.21-4.96c9.63,3.05,19.07,6.74,28.56,10.22c1.57,0.58,2.7,0.48,4.1-0.53
	c11.05-7.94,21.5-16.58,30.95-26.39c14.95-15.52,27.24-32.78,34.27-53.37c0.5-1.45,0.48-3.3,0.07-4.8c-1.3-4.84-2.91-9.6-4.36-14.4
	C438.53,352.36,435.15,341.07,431.64,329.4z M394.91,211.78c-3.65,2.59-7.11,4.71-10.17,7.29c-19.38,16.39-38.89,32.63-57.9,49.44
	c-12.6,11.15-24.84,22.78-36.54,34.87c-32.06,33.13-63.75,66.62-95.58,99.97c-0.37,0.39-0.64,0.86-1.29,1.74
	c77.33-33.51,153.02-69.23,231.74-98.12C415.44,274.88,406.9,243.01,394.91,211.78z M368.32,471.52c-0.06-0.25-0.12-0.5-0.18-0.75
	c-11.27-3.92-22.6-7.53-34.57-8.89c-8.13-0.93-15.38,0.98-21.97,5.61c-4.17,2.93-8.46,5.81-12.15,9.28
	c-2.74,2.58-5.58,5.78-6.69,9.24c-3.45,10.76,0.56,15.71,10.93,15.73c8.44,0.02,16.01-3.03,23.28-6.91
	c8.38-4.47,16.7-9.06,24.98-13.71C357.47,478.02,362.87,474.72,368.32,471.52z"></path>
<path class="st0" d="M543.28,259.33c-1.37-0.21-2.73-0.73-3.98-1.36c-3.13-1.58-3.74-4.4-0.93-6.47c2.54-1.87,5.64-3.24,8.69-4.12
	c7.6-2.2,15.39-3.76,22.97-6.02c6.56-1.96,13.06-4.25,19.33-6.97c3.21-1.4,6.16-3.78,8.7-6.26c3.09-3.01,3.39-6.28,0.93-9.82
	c-2.39-3.44-5.25-6.62-8.23-9.59c-15.2-15.12-33.19-25.68-53.5-32.43c-4.75-1.58-9.39-3.53-13.93-5.63
	c-1.48-0.69-2.5-2.39-3.73-3.62c1.65-0.6,3.35-1.8,4.95-1.69c6.48,0.46,12.97,1.1,19.4,2.08c15.73,2.39,30.98,6.53,45.48,13.22
	c14.56,6.72,26.94,16.35,37.19,28.6c2.48,2.97,4.37,6.61,5.81,10.23c2.38,6,1.25,11.92-3.26,16.41c-3.75,3.73-8.13,7.03-12.72,9.68
	c-11.83,6.84-25.02,9.78-38.31,12.14C570.51,259.07,547.18,259.92,543.28,259.33z"></path>
</svg></svg></g></svg></g><g id="dark-icon"><svg xmlns="http://www.w3.org/2000/svg" version="1.1" xmlns:xlink="http://www.w3.org/1999/xlink" xmlns:svgjs="http://svgjs.com/svgjs" width="1000" height="1000"><rect width="1000" height="1000" rx="200" ry="200" fill="#eeeeee"></rect><g transform="matrix(1,0,0,1,100,100)"><svg xmlns="http://www.w3.org/2000/svg" version="1.1" xmlns:xlink="http://www.w3.org/1999/xlink" xmlns:svgjs="http://svgjs.com/svgjs" width="800" height="800"><svg version="1.1" id="Layer_1" xmlns="http://www.w3.org/2000/svg" xmlns:xlink="http://www.w3.org/1999/xlink" x="0px" y="0px" viewBox="0 0 800 800" style="enable-background:new 0 0 800 800;" xml:space="preserve">
<path d="M371.55,172.96c-0.64-1.09-1.22-2.06-1.8-3.04c-16.28-27.52-32.61-55.03-46.38-83.91c-3.73-7.81-6.78-16.1-8.9-24.48
	c-2.13-8.38,0.63-16.29,6.4-22.77c4.15-4.67,9.54-5.65,15.47-3.82c8.82,2.73,15.94,11.67,15.46,21.46
	c-0.37,7.66,2.46,13.1,7.19,18.69c22.4,26.44,40.32,55.78,55.26,86.99c0.45,0.94,0.94,1.86,1.32,2.59c6.64-1.49,13-3.35,19.49-4.3
	c14.37-2.09,28.82-3.65,43.22-5.58c7.55-1.01,12.52,2.47,16,8.68c4.78,8.53,5.56,17.54,2.54,26.8c-0.66,2.02-1.9,4.03-3.38,5.57
	c-3.47,3.61-8.95,3.61-12.2-0.18c-1.95-2.27-3.3-5.16-4.47-7.96c-0.67-1.58-1.43-2.31-3.02-2.25c-4.6,0.18-9.03,0.21-13.59,2.15
	c-5.51,2.35-11.67,3.18-17.57,4.56c-4.36,1.02-8.76,1.87-13.58,2.89c0.37,1.44,0.56,2.81,1.07,4.05
	c12.49,30.75,25.01,61.48,37.54,92.21c0.1,0.24,0.26,0.45,0.45,0.78c3.86-0.57,7.75-1.28,11.66-1.69
	c12.57-1.33,24.43,0.7,35.04,7.98c1.73,1.19,3.42,2.54,4.79,4.11c2.87,3.28,2.28,7.06-1.79,8.56c-3.98,1.48-8.3,2.31-12.54,2.74
	c-7.96,0.81-15.97,1.1-23.96,1.66c-1.11,0.08-2.2,0.43-3.53,0.7c3.28,8.05,6.45,15.87,9.66,23.67
	c22.93,55.86,45.51,111.87,68.9,167.54c24.84,59.08,53.25,116.42,86.57,171.25c17.58,28.93,37.55,56.08,59.86,81.52
	c1.49,1.7,2.88,3.49,4.82,5.86c-2.02-0.48-3.39-0.53-4.5-1.1c-15.67-8.08-30.86-16.92-44.73-27.9
	c-22.84-18.09-43.24-38.63-61.73-61.1c-31.9-38.78-57.74-81.45-80.49-126.07c-21.51-42.18-39.49-85.88-55.59-130.37
	c-2.37-6.53-4.64-13.1-6.96-19.65c-0.32-0.9-0.69-1.77-1.22-3.11c-11.68,29.81-30.64,53.89-54.13,75.1c3.66,1.61,6.97,2.97,10.2,4.5
	c15.58,7.4,31.2,14.75,46.67,22.37c3.33,1.64,6.46,4.04,9.1,6.67c5.2,5.18,5.3,11.93,0.68,17.66c-4.02,4.98-9.29,8.42-14.95,11.12
	c-12.08,5.76-24.26,11.29-36.44,16.84c-36.64,16.69-72.87,34.19-107.38,55.04c-6.79,4.1-13.47,8.36-20.21,12.54
	c-12.23,7.58-25.38,12.44-39.77,13.93c-17.05,1.77-31.14-3.91-42.73-16.31c-12.67-13.55-20.01-29.34-18.31-48.13
	c0.87-9.59,3.31-19.07,5.42-28.51c8.77-39.33,26.07-75.04,46.91-109.19c5.18-8.5,10.6-16.85,15.92-25.27
	c0.51-0.81,1.01-1.62,1.71-2.73c-0.71,0.06-1.13-0.01-1.46,0.13c-23.45,10.08-47.29,19.35-69.72,31.64
	c-9.95,5.45-19.5,11.66-29.08,17.75c-11.54,7.34-23.18,14.43-36.17,19c-11.53,4.05-22.56,3.92-33.09-3.12
	c-7.25-4.84-7.43-9.42,0.41-13.3c7-3.46,14.42-6.06,21.72-8.9c28.06-10.94,51.97-27.82,73.04-49.27
	c44.1-44.92,88.49-89.57,132.94-134.14c22.62-22.68,46.58-43.89,72.15-63.23c0.42-0.31,0.79-0.68,1.16-1.01
	c-2.14-4.51-2.13-4.45-5.89-3.76c-20.95,3.84-41.1,10.47-60.98,17.92c-17.07,6.39-33.92,13.36-51.08,19.48
	c-7.4,2.64-15.25,4.63-23.04,5.41c-12.63,1.26-24.03-3.08-33.79-11.07c-4.82-3.95-9.15-8.53-13.43-13.07
	c-1.24-1.32-1.57-3.51-2.32-5.29c1.9-0.36,3.88-1.27,5.67-0.98c6.25,1.01,12.42,2.47,18.64,3.7c13.23,2.61,26.19,0.96,38.87-2.97
	c19.75-6.13,39.35-12.75,59.12-18.82c16.82-5.16,33.8-9.84,50.7-14.73C370.04,173.48,370.69,173.24,371.55,172.96z M431.64,329.4
	c-1.24,0.44-2.25,0.72-3.2,1.13c-13.69,5.91-46.76,18.4-48.39,19.06c-7.09,2.9-14.06,6.07-21.13,9.01
	c-17.96,7.5-35.79,15.28-52.73,24.92c-19.03,10.83-35.22,24.73-45.91,44.14c-7.47,13.57-14.73,27.28-21.44,41.23
	c-12.38,25.76-20.36,53.03-26.49,80.87c-1.76,7.98-3.8,15.94-2.7,24.29c2.2,16.67,15.6,34.33,38.99,32.56
	c8.46-0.64,16.02-3.87,23.29-7.97c33.36-18.83,66.69-37.73,101.55-53.7c14.4-6.6,29.03-12.71,43.36-19.47
	c5.52-2.61,10.79-6,15.64-9.72c5.1-3.91,5.13-9.19,0.42-13.6c-2.6-2.43-5.7-4.47-8.86-6.12c-10.46-5.46-21.07-10.62-31.56-16.01
	c-1.78-0.92-2.86-0.69-4.36,0.56c-17.22,14.29-35.87,26.44-55.78,36.63c-6.88,3.52-14.07,6.11-21.9,6.33
	c-8.2,0.24-16.07-1.29-21.86-7.46c-9.46-10.1-14.86-27.29-2.46-41.98c5.86-6.93,13.27-11.75,21-16.24
	c13.05-7.58,26.82-9.53,41.21-4.96c9.63,3.05,19.07,6.74,28.56,10.22c1.57,0.58,2.7,0.48,4.1-0.53
	c11.05-7.94,21.5-16.58,30.95-26.39c14.95-15.52,27.24-32.78,34.27-53.37c0.5-1.45,0.48-3.3,0.07-4.8c-1.3-4.84-2.91-9.6-4.36-14.4
	C438.53,352.36,435.15,341.07,431.64,329.4z M394.91,211.78c-3.65,2.59-7.11,4.71-10.17,7.29c-19.38,16.39-38.89,32.63-57.9,49.44
	c-12.6,11.15-24.84,22.78-36.54,34.87c-32.06,33.13-63.75,66.62-95.58,99.97c-0.37,0.39-0.64,0.86-1.29,1.74
	c77.33-33.51,153.02-69.23,231.74-98.12C415.44,274.88,406.9,243.01,394.91,211.78z M368.32,471.52c-0.06-0.25-0.12-0.5-0.18-0.75
	c-11.27-3.92-22.6-7.53-34.57-8.89c-8.13-0.93-15.38,0.98-21.97,5.61c-4.17,2.93-8.46,5.81-12.15,9.28
	c-2.74,2.58-5.58,5.78-6.69,9.24c-3.45,10.76,0.56,15.71,10.93,15.73c8.44,0.02,16.01-3.03,23.28-6.91
	c8.38-4.47,16.7-9.06,24.98-13.71C357.47,478.02,362.87,474.72,368.32,471.52z"></path>
<path d="M543.28,259.33c-1.37-0.21-2.73-0.73-3.98-1.36c-3.13-1.58-3.74-4.4-0.93-6.47c2.54-1.87,5.64-3.24,8.69-4.12
	c7.6-2.2,15.39-3.76,22.97-6.02c6.56-1.96,13.06-4.25,19.33-6.97c3.21-1.4,6.16-3.78,8.7-6.26c3.09-3.01,3.39-6.28,0.93-9.82
	c-2.39-3.44-5.25-6.62-8.23-9.59c-15.2-15.12-33.19-25.68-53.5-32.43c-4.75-1.58-9.39-3.53-13.93-5.63
	c-1.48-0.69-2.5-2.39-3.73-3.62c1.65-0.6,3.35-1.8,4.95-1.69c6.48,0.46,12.97,1.1,19.4,2.08c15.73,2.39,30.98,6.53,45.48,13.22
	c14.56,6.72,26.94,16.35,37.19,28.6c2.48,2.97,4.37,6.61,5.81,10.23c2.38,6,1.25,11.92-3.26,16.41c-3.75,3.73-8.13,7.03-12.72,9.68
	c-11.83,6.84-25.02,9.78-38.31,12.14C570.51,259.07,547.18,259.92,543.28,259.33z"></path>
</svg></svg></g></svg></g></svg>