<?xml version="1.0" standalone="no"?>
<!DOCTYPE svg PUBLIC "-//W3C//DTD SVG 20010904//EN"
 "http://www.w3.org/TR/2001/REC-SVG-20010904/DTD/svg10.dtd">
<svg version="1.0" xmlns="http://www.w3.org/2000/svg"
 width="512.000000pt" height="512.000000pt" viewBox="0 0 512.000000 512.000000"
 preserveAspectRatio="xMidYMid meet">
<metadata>
Created by potrace 1.11, written by Peter Selinger 2001-2013
</metadata>
<g transform="translate(0.000000,512.000000) scale(0.100000,-0.100000)"
fill="#000000" stroke="none">
<path d="M2066 4879 c-110 -86 -66 -221 247 -755 l65 -111 -182 -53 c-99 -29
-226 -67 -281 -85 -345 -113 -392 -121 -536 -93 -140 27 -150 16 -62 -70 138
-133 242 -138 528 -27 118 46 356 132 385 141 8 2 60 15 115 29 159 40 165 22
28 -85 -158 -124 -306 -265 -793 -757 -256 -258 -499 -498 -540 -532 -108 -90
-201 -145 -367 -217 -81 -35 -150 -69 -154 -75 -14 -24 5 -50 58 -75 47 -23
62 -26 115 -20 33 3 66 10 72 15 6 4 27 14 47 20 20 6 99 50 175 98 76 47 184
109 239 138 104 54 378 175 396 175 5 0 -3 -19 -19 -42 -167 -246 -312 -553
-372 -786 -58 -228 -59 -307 -8 -415 75 -156 207 -239 356 -223 98 11 178 45
360 154 162 96 427 235 627 327 109 51 238 111 302 142 95 44 143 106 123 157
-14 38 -62 68 -257 162 l-183 87 66 65 c88 89 185 219 236 320 l42 84 13 -29
c7 -15 42 -108 78 -205 58 -158 97 -254 176 -438 42 -97 206 -423 260 -515 29
-50 58 -102 66 -118 29 -55 201 -305 285 -412 153 -197 348 -388 518 -507 68
-47 220 -131 227 -124 2 2 -24 37 -58 77 -128 152 -304 402 -381 539 -38 68
-62 109 -98 170 -62 105 -238 456 -322 645 -107 239 -108 242 -273 645 -75
184 -143 349 -150 365 -43 99 -175 428 -173 430 2 2 35 6 73 9 132 11 165 18
188 36 l22 18 -29 31 c-56 58 -171 85 -291 67 l-30 -4 -124 303 c-68 167 -120
308 -117 314 4 6 15 11 25 11 11 0 62 11 115 25 128 33 150 33 165 -4 14 -33
51 -56 77 -47 50 16 68 132 32 205 -37 76 -45 77 -236 53 -92 -12 -178 -24
-192 -27 -84 -20 -83 -20 -109 37 -60 130 -187 333 -286 458 -76 95 -85 113
-92 166 -8 69 -35 118 -77 138 -46 22 -78 20 -110 -5z m508 -1249 c21 -63 40
-122 44 -130 7 -19 6 -17 21 -70 7 -25 28 -96 47 -159 20 -62 34 -114 32 -116
-2 -1 -91 -36 -198 -78 -233 -91 -507 -207 -925 -392 -170 -75 -316 -140 -324
-143 -36 -14 -19 4 454 497 186 194 305 310 401 391 16 14 59 50 94 80 36 30
67 57 70 60 64 65 232 193 240 183 3 -4 24 -60 44 -123z m202 -666 c36 -113
75 -245 79 -264 5 -23 -27 -103 -68 -175 -62 -105 -180 -235 -301 -328 l-59
-45 -116 41 c-158 55 -219 56 -323 4 -87 -43 -159 -102 -182 -151 -33 -70 -21
-155 30 -214 42 -49 75 -61 157 -58 52 2 78 9 148 45 81 42 229 136 316 202
l43 32 117 -59 c135 -68 173 -96 173 -129 0 -38 -60 -78 -234 -156 -176 -80
-506 -243 -546 -269 -14 -10 -61 -36 -105 -60 -44 -24 -117 -63 -163 -88 -129
-69 -235 -69 -316 0 -86 73 -101 156 -61 333 46 206 110 383 211 581 105 207
135 254 207 326 120 117 306 213 782 404 99 39 184 71 189 70 6 -1 15 -20 22
-42z m-601 -808 c22 -4 73 -17 113 -28 l73 -21 -43 -27 c-51 -32 -184 -104
-252 -137 -61 -31 -138 -41 -171 -23 -20 11 -25 21 -25 49 1 44 15 69 60 108
100 85 141 98 245 79z"/>
<path d="M3336 4052 c-9 -14 9 -25 104 -61 162 -63 246 -115 343 -214 37 -37
57 -67 57 -82 0 -48 -87 -92 -288 -145 -45 -12 -92 -30 -104 -39 -20 -17 -20
-18 -2 -35 16 -17 31 -18 139 -13 281 14 491 119 465 233 -25 108 -185 240
-366 302 -128 44 -334 76 -348 54z"/>
</g>
</svg>
